:SAMPLES-PER-SECOND 24
:FULLY-SPECIFIED
:DEGREES
152
root  -1.69095 39.3445 26.7578 179.351 -70.7845 174.713
RightUpLeg  -6.60944 -9.3864 -24.6268
RightLeg  31.1392 5.80187 3.5401
RightFoot  10.3214 -3.05295 16.171
RightToes  -1.74623e-010 0 -2.59999e-017
Spine  3.51082 -1.93842 -4.09868
Spine1  13.8019 -3.29159 2.54808
HEad  -14.9975 -39.7713 16.8263
LeftShoulder1  2.14848 -3.77136 -23.272
LeftArm  26.1046 -9.72979 -48.2098
LeftForeArm  138.764 -71.1313 -147.235
LeftHand  0.019136 5.67263 14.0409
RightShoulder  2.79622 5.05794 26.6608
RightArm  -6.89661 -15.1937 31.1389
RightForeArm  14.7056 55.1895 15.0769
RightHand  -0.131878 -1.96226 -4.2133
LeftUpLeg  -6.74997 3.41703 13.7931
LeftLeg  39.5494 -7.50159 -6.28524
LeftFoot  3.98579 1.86674 -14.0027
LeftToes  -6.27559e-011 -2.10356e-011 8.24929e-012
153
root  -1.20713 38.1854 26.2412 177.633 -70.8728 175.458
RightUpLeg  -4.63205 -9.94955 -24.504
RightLeg  33.651 6.39719 4.32727
RightFoot  0.368731 -2.15128 20.7907
RightToes  -1.74623e-010 0 -2.59999e-017
Spine  4.64876 -1.57509 -4.83795
Spine1  13.355 -3.10471 2.44795
HEad  -14.4018 -39.386 16.6849
LeftShoulder1  2.10232 -3.76513 -22.6276
LeftArm  23.8675 -11.9646 -48.8034
LeftForeArm  139.107 -71.0439 -147.44
LeftHand  0.0749916 6.15271 13.9238
RightShoulder  2.56884 4.73984 25.0957
RightArm  -8.65786 -9.96423 28.6912
RightForeArm  10.4663 57.3326 16.8745
RightHand  -0.350581 -1.11333 -9.44131
LeftUpLeg  -7.43536 4.23739 13.7739
LeftLeg  46.9307 -4.54337 -4.75791
LeftFoot  -1.59055 1.23894 -14.3529
LeftToes  -6.27559e-011 -2.10356e-011 8.24929e-012
154
root  -0.740583 36.7149 25.845 175.546 -69.22 176.921
RightUpLeg  -5.38728 -11.3103 -24.0825
RightLeg  37.4562 8.22747 6.48736
RightFoot  -12.8759 0.152305 18.7239
RightToes  -1.74623e-010 0 -2.59999e-017
Spine  5.03299 -0.894845 -4.36319
Spine1  14.0534 -2.21557 1.10056
HEad  -15.3635 -38.8761 16.8805
LeftShoulder1  1.9892 -3.50891 -22.0375
LeftArm  21.4325 -15.5796 -49.5961
LeftForeArm  138.934 -70.6252 -148.142
LeftHand  0.145851 6.7194 14.2637
RightShoulder  2.47801 4.60086 24.4808
RightArm  -11.7103 -1.72719 25.3453
RightForeArm  6.20883 55.1971 15.8498
RightHand  -0.524233 -0.481604 -12.441
LeftUpLeg  -6.525 4.88646 14.3065
LeftLeg  50.3731 -0.0875483 0.333698
LeftFoot  -12.4828 -0.105914 -16.0737
LeftToes  -6.27559e-011 -2.10356e-011 8.24929e-012
155
root  -0.286806 35.4769 25.7591 173.353 -65.8246 179.658
RightUpLeg  -10.4226 -13.0236 -22.9485
RightLeg  43.988 10.2311 10.1629
RightFoot  -18.0801 0.764594 14.7891
RightToes  -1.74623e-010 0 -2.59999e-017
Spine  4.73843 -0.177098 -1.68597
Spine1  15.1578 -0.702157 -1.69624
HEad  -18.2922 -38.2006 17.7022
LeftShoulder1  1.9413 -3.20795 -22.6321
LeftArm  19.3035 -18.7405 -49.8453
LeftForeArm  140.404 -70.4212 -148.698
LeftHand  0.154492 6.94208 13.086
RightShoulder  2.66287 4.87832 25.7243
RightArm  -16.5966 6.88896 21.2448
RightForeArm  8.08469 49.7827 12.7227
RightHand  -0.540768 -0.732907 -13.4667
LeftUpLeg  -5.70157 5.05113 15.7655
LeftLeg  51.5441 0.816451 1.59281
LeftFoot  -22.4661 -1.83989 -20.0269
LeftToes  -6.27559e-011 -2.10356e-011 8.24929e-012
156
root  -0.0480762 35.3352 25.8774 172.993 -63.83 -179.265
RightUpLeg  -13.0189 -14.0443 -22.2184
RightLeg  45.4821 11.5039 11.9509
RightFoot  -17.0767 0.59849 14.1193
RightToes  -1.74623e-010 0 -2.59999e-017
Spine  4.37752 0.0890729 -0.865345
Spine1  16.0421 -0.283927 -2.20837
HEad  -21.4467 -37.6688 19.2367
LeftShoulder1  2.126 -3.44751 -24.37
LeftArm  19.5944 -17.8044 -50.7122
LeftForeArm  140.835 -71.4525 -146.966
LeftHand  0.129485 6.99264 11.0625
RightShoulder  2.84056 5.14733 26.8402
RightArm  -21.8718 10.0162 20.6974
RightForeArm  16.7354 44.037 9.68924
RightHand  -0.594943 -1.43322 -17.3765
LeftUpLeg  -4.96587 5.35241 16.309
LeftLeg  49.9138 0.710839 1.38771
LeftFoot  -24.9722 -2.48917 -21.9009
LeftToes  -6.27559e-011 -2.10356e-011 8.24929e-012
